<svg width="30" height="30" viewBox="0 0 30 30" fill="none" xmlns="http://www.w3.org/2000/svg">
<g clip-path="url(#clip0_2870_114404)">
<path fill-rule="evenodd" clip-rule="evenodd" d="M15 0C23.2837 0 30 6.71631 30 15C30 23.2837 23.2837 30 15 30C6.71631 30 0 23.2837 0 15C0 6.71631 6.71631 0 15 0ZM12.832 20.5078C12.3877 20.6567 11.9336 20.7935 11.4893 20.9399C11.0449 21.0889 10.6006 21.2354 10.1465 21.3843C9.08691 21.7261 8.5083 21.9189 8.38135 21.9531C8.25684 21.9873 8.33496 21.499 8.59863 20.4736L9.44092 17.2534L15.791 10.6519L19.1724 13.9062L12.832 20.5078ZM19.1602 8.26172C19.0015 8.11279 18.8184 8.03467 18.6133 8.04443C18.4082 8.04443 18.2251 8.125 18.0786 8.28369L16.8726 9.53613L20.2539 12.8027L21.4722 11.5283C21.6211 11.3794 21.6772 11.1865 21.6772 10.9814C21.6772 10.7764 21.5967 10.5835 21.4502 10.4468L19.1602 8.26172Z" fill="#3A8DDE"/>
</g>
<defs>
<clipPath id="clip0_2870_114404">
<rect width="30" height="30" fill="white"/>
</clipPath>
</defs>
</svg>
