<svg width="30" height="30" viewBox="0 0 30 30" fill="none" xmlns="http://www.w3.org/2000/svg">
<g clip-path="url(#clip0_2870_114390)">
<circle cx="15" cy="15" r="15" fill="#3A8DDE"/>
<path d="M15 7C16.4587 7 17.8576 7.57946 18.8891 8.61091C19.9205 9.64236 20.5 11.0413 20.5 12.5C20.5 13.9587 19.9205 15.3576 18.8891 16.3891C17.8576 17.4205 16.4587 18 15 18C13.5413 18 12.1424 17.4205 11.1109 16.3891C10.0795 15.3576 9.5 13.9587 9.5 12.5C9.5 11.0413 10.0795 9.64236 11.1109 8.61091C12.1424 7.57946 13.5413 7 15 7ZM15 29C15 29 26 29 26 26.25C26 22.95 20.6375 19.375 15 19.375C9.3625 19.375 4 22.95 4 26.25C4 29 15 29 15 29Z" fill="white"/>
</g>
<rect x="0.5" y="0.5" width="29" height="29" rx="14.5" stroke="#3A8DDE"/>
<defs>
<clipPath id="clip0_2870_114390">
<rect width="30" height="30" rx="15" fill="white"/>
</clipPath>
</defs>
</svg>
