<svg width="97" height="47" viewBox="0 0 97 47" fill="none" xmlns="http://www.w3.org/2000/svg">
<g clip-path="url(#clip0_4529_8466)">
<path d="M35.2569 2.98008L24.3453 28.3971C20.1995 38.2022 16.4507 45.365 9.16804 45.5698C5.19203 45.6822 2.19504 42.915 1.99524 38.6118C1.95278 37.6853 -0.130128 39.2886 0.192049 40.9969C0.821418 44.3461 4.24798 47.0309 9.208 46.891C17.3873 46.6612 22.5971 39.5459 27.0351 29.1363L38.4611 2.7528C38.7259 2.13093 35.5965 2.17588 35.2569 2.98008Z" fill="#3A8DDE"/>
<path style="mix-blend-mode:multiply" d="M35.2569 2.98008L24.3453 28.3971C20.1995 38.2022 16.4507 45.365 9.16804 45.5698C5.19203 45.6822 2.19504 42.915 1.99524 38.6118C1.95278 37.6853 -0.130128 39.2886 0.192049 40.9969C0.821418 44.3461 4.24798 47.0309 9.208 46.891C17.3873 46.6612 22.5971 39.5459 27.0351 29.1363L38.4611 2.7528C38.7259 2.13093 35.5965 2.17588 35.2569 2.98008Z" fill="url(#paint0_linear_4529_8466)"/>
<path d="M84.5743 17.7429C86.8645 17.2134 90.1812 15.3253 91.41 13.5496C92.2316 12.3633 90.843 9.40124 90.0538 10.6225C88.7326 12.668 85.9779 15.1105 83.0209 16.3443C82.3016 16.644 83.3455 18.0276 84.5743 17.7429Z" fill="#3A8DDE"/>
<path style="mix-blend-mode:multiply" d="M84.5743 17.7429C86.8645 17.2134 90.1812 15.3253 91.41 13.5496C92.2316 12.3633 90.843 9.40124 90.0538 10.6225C88.7326 12.668 85.9779 15.1105 83.0209 16.3443C82.3016 16.644 83.3455 18.0276 84.5743 17.7429Z" fill="url(#paint1_linear_4529_8466)"/>
<path d="M96.1775 29.024C93.5651 31.2967 87.651 34.4461 83.2354 34.4111C81.2449 34.3961 80.1785 33.492 79.6416 31.8936C82.1241 30.3152 84.2969 28.4071 85.7279 26.2318C87.6535 23.3072 86.7519 20.4301 83.8948 20.8197C81.0901 21.2019 77.9907 23.9666 76.9143 27.7478C76.5846 28.9066 76.3973 30.4001 76.5522 31.7288C75.221 32.4156 72.5836 34.9705 69.7115 34.7508C66.8394 34.531 65.793 30.8871 67.7235 24.6434C67.7485 24.5585 67.7535 24.4861 67.766 24.4086C68.0607 23.592 68.6126 22.3157 69.6116 20.7623C71.7919 17.3732 78.2654 7.97014 79.2145 3.15996C79.7814 0.287845 77.8234 -0.304061 76.1725 1.47665C72.6735 5.24787 69.0372 10.4427 66.3874 21.0795C61.0527 19.2288 55.3409 24.9531 53.3454 29.1814C52.9209 30.0805 52.6461 30.9621 52.5138 31.7887C52.3489 32.0884 52.1466 32.3881 51.9468 32.6554C51.8644 32.7777 50.9628 33.8067 50.4983 34.1264C50.3884 34.1938 49.9014 34.4935 49.774 34.526C49.5792 34.6234 49.1571 34.7208 48.7625 34.7508C46.1826 34.7433 45.1037 30.9621 47.0293 24.7333C47.2041 24.1714 46.837 23.6794 46.35 23.3797C46.5722 22.8327 46.5173 21.4966 45.9878 21.2593C40.5083 18.8242 34.4819 24.8132 32.4214 29.1789C30.4184 33.4221 31.7171 37.3057 35.7681 36.5714C38.298 36.1144 41.0028 33.005 43.3654 29.1863C43.0433 33.9016 44.7591 37.1209 48.7176 36.9536V36.9411C50.281 36.8936 51.7196 36.1019 52.8534 34.9705C53.4803 36.2343 54.779 36.9186 56.6921 36.5714C59.222 36.1144 61.9268 33.005 64.2895 29.1863C63.9673 33.9016 65.8654 37.3557 69.6416 36.9536C73.705 36.5215 75.8678 34.3062 76.9767 33.4121C77.7534 35.3252 79.4143 36.489 82.2464 36.489C87.3813 36.489 93.7224 33.05 96.3173 30.6948C97.169 29.9231 96.8842 28.4071 96.175 29.0265L96.1775 29.024ZM77.189 2.91271C77.7534 2.16346 77.9308 2.36326 77.7135 3.19743C76.5472 7.66294 74.4418 10.8223 69.6516 17.9701C71.4348 11.3992 74.3194 6.7114 77.189 2.91271ZM35.9754 33.989C34.5118 34.3637 33.9549 32.6903 34.8365 30.2153C36.4174 25.7798 41.0578 21.9037 44.9788 22.5805C43.5203 26.4716 38.9399 33.2298 35.9729 33.9915L35.9754 33.989ZM56.8994 33.989C55.4358 34.3637 54.8789 32.6903 55.7605 30.2153C57.3414 25.7798 61.9818 21.9037 65.9028 22.5805C64.4443 26.4716 59.8639 33.2298 56.8969 33.9915L56.8994 33.989ZM79.7889 27.076C80.5706 24.8457 82.1141 23.3372 83.3229 22.9901C84.689 22.6005 85.0536 23.9841 84.0821 25.4776C82.9357 27.2383 81.2549 28.7867 79.3194 30.0954C79.2994 29.1189 79.4742 27.9726 79.7889 27.076Z" fill="#3A8DDE"/>
<g style="mix-blend-mode:multiply">
<path d="M96.1775 29.024C93.5651 31.2967 87.651 34.4461 83.2354 34.4111C81.2449 34.3961 80.1785 33.492 79.6416 31.8936C82.1241 30.3152 84.2969 28.4071 85.7279 26.2318C87.6535 23.3072 86.7519 20.4301 83.8948 20.8197C81.0901 21.2019 77.9907 23.9666 76.9143 27.7478C76.5846 28.9066 76.3973 30.4001 76.5522 31.7288C75.221 32.4156 72.5836 34.9705 69.7115 34.7508C66.8394 34.531 65.793 30.8871 67.7235 24.6434C67.7485 24.5585 67.7535 24.4861 67.766 24.4086C68.0607 23.592 68.6126 22.3157 69.6116 20.7623C71.7919 17.3732 78.2654 7.97014 79.2145 3.15996C79.7814 0.287845 77.8234 -0.304061 76.1725 1.47665C72.6735 5.24787 69.0372 10.4427 66.3874 21.0795C61.0527 19.2288 55.3409 24.9531 53.3454 29.1814C52.9209 30.0805 52.6461 30.9621 52.5138 31.7887C52.3489 32.0884 52.1466 32.3881 51.9468 32.6554C51.8644 32.7777 50.9628 33.8067 50.4983 34.1264C50.3884 34.1938 49.9014 34.4935 49.774 34.526C49.5792 34.6234 49.1571 34.7208 48.7625 34.7508C46.1826 34.7433 45.1037 30.9621 47.0293 24.7333C47.2041 24.1714 46.837 23.6794 46.35 23.3797C46.5722 22.8327 46.5173 21.4966 45.9878 21.2593C40.5083 18.8242 34.4819 24.8132 32.4214 29.1789C30.4184 33.4221 31.7171 37.3057 35.7681 36.5714C38.298 36.1144 41.0028 33.005 43.3654 29.1863C43.0433 33.9016 44.7591 37.1209 48.7176 36.9536V36.9411C50.281 36.8936 51.7196 36.1019 52.8534 34.9705C53.4803 36.2343 54.779 36.9186 56.6921 36.5714C59.222 36.1144 61.9268 33.005 64.2895 29.1863C63.9673 33.9016 65.8654 37.3557 69.6416 36.9536C73.705 36.5215 75.8678 34.3062 76.9767 33.4121C77.7534 35.3252 79.4143 36.489 82.2464 36.489C87.3813 36.489 93.7224 33.05 96.3173 30.6948C97.169 29.9231 96.8842 28.4071 96.175 29.0265L96.1775 29.024ZM77.189 2.91271C77.7534 2.16346 77.9308 2.36326 77.7135 3.19743C76.5472 7.66294 74.4418 10.8223 69.6516 17.9701C71.4348 11.3992 74.3194 6.7114 77.189 2.91271ZM35.9754 33.989C34.5118 34.3637 33.9549 32.6903 34.8365 30.2153C36.4174 25.7798 41.0578 21.9037 44.9788 22.5805C43.5203 26.4716 38.9399 33.2298 35.9729 33.9915L35.9754 33.989ZM56.8994 33.989C55.4358 34.3637 54.8789 32.6903 55.7605 30.2153C57.3414 25.7798 61.9818 21.9037 65.9028 22.5805C64.4443 26.4716 59.8639 33.2298 56.8969 33.9915L56.8994 33.989ZM79.7889 27.076C80.5706 24.8457 82.1141 23.3372 83.3229 22.9901C84.689 22.6005 85.0536 23.9841 84.0821 25.4776C82.9357 27.2383 81.2549 28.7867 79.3194 30.0954C79.2994 29.1189 79.4742 27.9726 79.7889 27.076Z" fill="url(#paint2_linear_4529_8466)"/>
</g>
</g>
<defs>
<linearGradient id="paint0_linear_4529_8466" x1="0.157084" y1="24.6134" x2="38.4761" y2="24.6134" gradientUnits="userSpaceOnUse">
<stop offset="0.03" stop-color="#00358F"/>
<stop offset="0.56" stop-color="#F6F7FA"/>
<stop offset="1" stop-color="#00358F"/>
</linearGradient>
<linearGradient id="paint1_linear_4529_8466" x1="82.7836" y1="14.0591" x2="91.6597" y2="14.0591" gradientUnits="userSpaceOnUse">
<stop offset="0.56" stop-color="#F6F7FA"/>
<stop offset="0.6" stop-color="#EDEFF6"/>
<stop offset="0.66" stop-color="#D4DCEB"/>
<stop offset="0.74" stop-color="#ACBDDA"/>
<stop offset="0.83" stop-color="#7591C2"/>
<stop offset="0.93" stop-color="#305AA3"/>
<stop offset="1" stop-color="#00358F"/>
</linearGradient>
<linearGradient id="paint2_linear_4529_8466" x1="64.1696" y1="36.9835" x2="64.1696" y2="0.465168" gradientUnits="userSpaceOnUse">
<stop offset="0.03" stop-color="#00358F"/>
<stop offset="0.56" stop-color="#F6F7FA"/>
<stop offset="1" stop-color="#00358F"/>
</linearGradient>
<clipPath id="clip0_4529_8466">
<rect width="96.688" height="46.4309" fill="white" transform="translate(0.15625 0.465149)"/>
</clipPath>
</defs>
</svg>
