<svg width="52" height="52" viewBox="0 0 52 52" fill="none" xmlns="http://www.w3.org/2000/svg">
<path fill-rule="evenodd" clip-rule="evenodd" d="M6.00051 28.4868C5.97464 25.8943 6.93195 23.5953 9.17861 22.8438L9.23467 22.746C9.30036 22.6129 9.38789 22.4926 9.4934 22.3903C9.62937 22.2874 9.783 22.2119 9.94618 22.1679L10.0712 22.119C20.9639 17.9924 25.8755 11.7981 28.7 7.59148C28.7 11.7225 29.7047 17.1075 31.4727 22.3191C33.2882 27.6552 35.91 32.8624 39.1096 36.442C35.7763 35.4637 31.5935 34.2186 24.7888 35.1747C24.5038 35.8906 24.3405 36.6517 24.3058 37.4247C24.2834 37.6658 24.3102 37.9091 24.3844 38.1388C24.4587 38.3686 24.5788 38.5798 24.7371 38.7587L24.8405 38.8566C25.2718 39.2612 25.4831 39.4613 25.5779 39.8215C25.6414 40.2985 25.6224 40.7832 25.5219 41.2534L25.4831 41.5513C25.3235 42.8542 25.9358 43.121 26.5439 43.3878C27.1519 43.6546 27.6262 43.8681 27.872 44.584C27.8893 44.6419 27.8893 44.7039 27.872 44.7619C27.6219 46.0959 26.794 46.8251 25.9617 47.5589C25.759 47.7412 25.5521 47.9235 25.3753 48.0969H25.3494C23.659 49.4932 22.5163 49.1197 21.6495 47.9991C20.9682 47.1097 20.4938 45.7757 20.054 44.5262L19.8643 43.9837C19.152 41.7869 18.5758 39.5457 18.1394 37.2735L17.9928 36.6065C17.6176 36.7132 17.2252 36.8333 16.8155 36.9578C16.2981 37.1134 15.7806 37.2824 15.2674 37.4514L15.1036 37.5137C15.0184 37.5714 14.9187 37.6022 14.8168 37.6022C14.7149 37.6022 14.6152 37.5714 14.5301 37.5137C11.8091 38.4475 9.53652 37.1134 8.01862 34.8901C7.37782 33.9517 6.88179 32.9167 6.54816 31.8218C6.20644 30.7442 6.02188 29.6203 6.00051 28.4868ZM31.3347 3.76283C31.3908 3.69613 31.4512 3.63388 31.5072 3.57607C31.6842 3.36735 31.9016 3.1992 32.1454 3.08248C32.4238 2.9863 32.723 2.97396 33.0079 3.0469C33.9781 3.20699 35.0174 3.93625 36.0739 5.05239C38.6612 7.80493 41.3865 13.0565 43.327 18.575C45.2675 24.0934 46.4318 29.8519 45.8496 33.5916C45.6297 34.9835 45.1726 36.1085 44.4223 36.8511L44.3835 36.8822C44.068 37.116 43.7027 37.2685 43.3184 37.3269C43.2844 37.2948 43.2483 37.2651 43.2106 37.238C40.6275 35.3347 38.3421 32.1776 36.4188 28.4645C36.9104 28.5623 37.54 28.1844 38.1437 27.5396C41.1623 24.2579 39.6789 18.5216 35.9143 17.192C34.3792 16.6584 32.8526 16.6584 32.2489 16.9652L32.1842 17.0008C30.8043 11.5091 30.4119 6.43088 31.3347 3.76283Z" fill="url(#paint0_linear_2870_114556)"/>
<defs>
<linearGradient id="paint0_linear_2870_114556" x1="31" y1="3" x2="25.4032" y2="49.2304" gradientUnits="userSpaceOnUse">
<stop stop-color="#001042"/>
<stop offset="0.379768" stop-color="#347CC5"/>
<stop offset="0.510977" stop-color="#3889DA"/>
<stop offset="0.634234" stop-color="#347CC5"/>
<stop offset="1" stop-color="#001042"/>
</linearGradient>
</defs>
</svg>
