<svg width="36" height="36" viewBox="0 0 36 36" fill="none" xmlns="http://www.w3.org/2000/svg">
<path d="M9.47306 9.92215C9.13925 9.58926 9.13925 9.04857 9.47306 8.71568C9.80557 8.38408 10.3437 8.38408 10.6762 8.71568L17.8434 15.8632L25.0601 8.66634C25.3926 8.33474 25.9308 8.33474 26.2633 8.66634C26.5971 8.99923 26.5971 9.53992 26.2633 9.87281L19.0499 17.0664L26.2633 24.26C26.5971 24.5929 26.5971 25.1336 26.2633 25.4665C25.9308 25.7981 25.3926 25.7981 25.0601 25.4665L17.8434 18.2696L10.6762 25.4171C10.3437 25.7487 9.80557 25.7487 9.47306 25.4171C9.13925 25.0842 9.13925 24.5435 9.47306 24.2107L16.6369 17.0664L9.47306 9.92215Z" fill="#0074B8"/>
</svg>
