<svg width="56" height="60" viewBox="0 0 56 60" fill="none" xmlns="http://www.w3.org/2000/svg">
<g opacity="0.9">
<g style="mix-blend-mode:multiply">
<path d="M28.6245 36.0825C34.2412 28.7962 45.564 22.5398 50.6177 20.7774C59.9639 17.5213 54.312 27.8846 44.5565 35.5131C42.5382 37.0932 40.4783 42.7066 36.4386 44.2899C35.3862 44.7025 31.2889 45.515 26.5231 41.504C25.5475 40.682 27.4283 37.6337 28.6245 36.0825Z" fill="url(#paint0_linear_4509_5121)"/>
<path style="mix-blend-mode:multiply" d="M28.6245 36.0825C34.2412 28.7962 45.564 22.5398 50.6177 20.7774C59.9639 17.5213 54.312 27.8846 44.5565 35.5131C42.5382 37.0932 40.4783 42.7066 36.4386 44.2899C35.3862 44.7025 31.2889 45.515 26.5231 41.504C25.5475 40.682 27.4283 37.6337 28.6245 36.0825Z" fill="url(#paint1_linear_4509_5121)"/>
</g>
<g style="mix-blend-mode:multiply">
<path d="M26.227 41.1202C22.4463 44.2388 20.7383 56.7707 22.587 59.3103C24.2759 61.6293 34.9334 53.4794 36.6702 46.6537C37.8025 42.2077 27.6279 39.9655 26.2302 41.1202H26.227Z" fill="url(#paint2_linear_4509_5121)"/>
<path style="mix-blend-mode:multiply" d="M26.227 41.1202C22.4463 44.2388 20.7383 56.7707 22.587 59.3103C24.2759 61.6293 34.9334 53.4794 36.6702 46.6537C37.8025 42.2077 27.6279 39.9655 26.2302 41.1202H26.227Z" fill="url(#paint3_linear_4509_5121)"/>
</g>
<g style="mix-blend-mode:multiply">
<path d="M24.2266 39.7608C28.455 37.6242 27.0861 3.53413 11.5635 0.089295C7.52697 -0.806297 7.49498 5.19097 6.94163 11.0795C6.49064 15.8773 3.04902 20.528 5.87973 24.2895C10.041 29.8198 22.1315 40.8163 24.2266 39.7608Z" fill="#60B1E7"/>
<path style="mix-blend-mode:multiply" d="M24.2266 39.7608C28.455 37.6242 27.0861 3.53413 11.5635 0.089295C7.52697 -0.806297 7.49498 5.19097 6.94163 11.0795C6.49064 15.8773 3.04902 20.528 5.87973 24.2895C10.041 29.8198 22.1315 40.8163 24.2266 39.7608Z" fill="url(#paint4_linear_4509_5121)"/>
<path style="mix-blend-mode:multiply" d="M24.2266 39.7608C28.455 37.6242 27.0861 3.53413 11.5635 0.089295C7.52697 -0.806297 7.49498 5.19097 6.94163 11.0795C6.49064 15.8773 3.04902 20.528 5.87973 24.2895C10.041 29.8198 22.1315 40.8163 24.2266 39.7608Z" fill="url(#paint5_linear_4509_5121)"/>
</g>
<g style="mix-blend-mode:multiply">
<path d="M9.65307 28.5403C4.06521 26.7491 -1.71136 27.6479 0.473245 40.6723C1.25369 45.3294 6.60485 55.5072 22.863 41.9262C23.7043 41.2225 24.1009 40.49 24.1872 39.7575C24.5743 36.4343 14.1534 29.9796 9.65307 28.5403Z" fill="#60B1E7"/>
<path style="mix-blend-mode:multiply" d="M9.65307 28.5403C4.06521 26.7491 -1.71136 27.6479 0.473245 40.6723C1.25369 45.3294 6.60485 55.5072 22.863 41.9262C23.7043 41.2225 24.1009 40.49 24.1872 39.7575C24.5743 36.4343 14.1534 29.9796 9.65307 28.5403Z" fill="url(#paint6_linear_4509_5121)"/>
<path style="mix-blend-mode:multiply" d="M9.65307 28.5403C4.06521 26.7491 -1.71136 27.6479 0.473245 40.6723C1.25369 45.3294 6.60485 55.5072 22.863 41.9262C23.7043 41.2225 24.1009 40.49 24.1872 39.7575C24.5743 36.4343 14.1534 29.9796 9.65307 28.5403Z" fill="url(#paint7_linear_4509_5121)"/>
</g>
<path d="M36.6305 24.6415C34.1772 26.599 32.0406 28.9435 30.2366 31.5216C29.9168 31.9758 29.5681 32.4651 29.2067 32.9769L29.2003 32.9929C29.3219 32.6507 29.4434 32.3084 29.5554 31.963C30.5341 28.9755 31.1258 25.857 31.2186 22.7192C31.3177 19.5846 30.9051 16.4436 30.0127 13.453C30.8124 16.4692 31.1194 19.607 30.9211 22.7032C30.7292 25.8026 30.0479 28.8572 28.9924 31.7647C27.9369 34.6753 26.5167 37.4453 24.8439 40.0393C24.0059 41.3379 23.1039 42.5917 22.1411 43.7976C21.6614 44.3989 21.1656 44.9906 20.6538 45.5664C20.4427 45.8031 19.5343 46.5227 19.0449 47.1976C18.7219 47.6454 18.5812 48.074 18.949 48.3299C19.7646 48.9025 21.0984 46.7722 21.4982 46.2924C22.0036 45.6847 22.493 45.0642 22.9664 44.4341C23.9099 43.1707 24.7895 41.8625 25.6019 40.5095C25.9762 39.8858 26.3376 39.2525 26.6831 38.6095L26.6735 38.6319C27.6618 36.8567 28.2567 35.2703 30.7324 31.8478C32.546 29.3434 34.4587 26.8773 36.8224 24.8654C39.183 22.8471 41.8761 21.2095 44.7676 20.0388C41.8409 21.1167 39.0806 22.6744 36.6337 24.6351L36.6305 24.6415Z" fill="#60B1E7"/>
<path style="mix-blend-mode:multiply" d="M36.6305 24.6415C34.1772 26.599 32.0406 28.9435 30.2366 31.5216C29.9168 31.9758 29.5681 32.4651 29.2067 32.9769L29.2003 32.9929C29.3219 32.6507 29.4434 32.3084 29.5554 31.963C30.5341 28.9755 31.1258 25.857 31.2186 22.7192C31.3177 19.5846 30.9051 16.4436 30.0127 13.453C30.8124 16.4692 31.1194 19.607 30.9211 22.7032C30.7292 25.8026 30.0479 28.8572 28.9924 31.7647C27.9369 34.6753 26.5167 37.4453 24.8439 40.0393C24.0059 41.3379 23.1039 42.5917 22.1411 43.7976C21.6614 44.3989 21.1656 44.9906 20.6538 45.5664C20.4427 45.8031 19.5343 46.5227 19.0449 47.1976C18.7219 47.6454 18.5812 48.074 18.949 48.3299C19.7646 48.9025 21.0984 46.7722 21.4982 46.2924C22.0036 45.6847 22.493 45.0642 22.9664 44.4341C23.9099 43.1707 24.7895 41.8625 25.6019 40.5095C25.9762 39.8858 26.3376 39.2525 26.6831 38.6095L26.6735 38.6319C27.6618 36.8567 28.2567 35.2703 30.7324 31.8478C32.546 29.3434 34.4587 26.8773 36.8224 24.8654C39.183 22.8471 41.8761 21.2095 44.7676 20.0388C41.8409 21.1167 39.0806 22.6744 36.6337 24.6351L36.6305 24.6415Z" fill="url(#paint8_linear_4509_5121)"/>
<path style="mix-blend-mode:multiply" d="M36.6305 24.6415C34.1772 26.599 32.0406 28.9435 30.2366 31.5216C29.9168 31.9758 29.5681 32.4651 29.2067 32.9769L29.2003 32.9929C29.3219 32.6507 29.4434 32.3084 29.5554 31.963C30.5341 28.9755 31.1258 25.857 31.2186 22.7192C31.3177 19.5846 30.9051 16.4436 30.0127 13.453C30.8124 16.4692 31.1194 19.607 30.9211 22.7032C30.7292 25.8026 30.0479 28.8572 28.9924 31.7647C27.9369 34.6753 26.5167 37.4453 24.8439 40.0393C24.0059 41.3379 23.1039 42.5917 22.1411 43.7976C21.6614 44.3989 21.1656 44.9906 20.6538 45.5664C20.4427 45.8031 19.5343 46.5227 19.0449 47.1976C18.7219 47.6454 18.5812 48.074 18.949 48.3299C19.7646 48.9025 21.0984 46.7722 21.4982 46.2924C22.0036 45.6847 22.493 45.0642 22.9664 44.4341C23.9099 43.1707 24.7895 41.8625 25.6019 40.5095C25.9762 39.8858 26.3376 39.2525 26.6831 38.6095L26.6735 38.6319C27.6618 36.8567 28.2567 35.2703 30.7324 31.8478C32.546 29.3434 34.4587 26.8773 36.8224 24.8654C39.183 22.8471 41.8761 21.2095 44.7676 20.0388C41.8409 21.1167 39.0806 22.6744 36.6337 24.6351L36.6305 24.6415Z" fill="url(#paint9_linear_4509_5121)"/>
</g>
<defs>
<linearGradient id="paint0_linear_4509_5121" x1="26.2512" y1="32.4041" x2="55.3899" y2="32.4041" gradientUnits="userSpaceOnUse">
<stop offset="0.01" stop-color="#60B1E7"/>
<stop offset="0.25" stop-color="#71B8E8" stop-opacity="0.9"/>
<stop offset="0.52" stop-color="#7FBDEA" stop-opacity="0.83"/>
<stop offset="0.72" stop-color="#85C0EB" stop-opacity="0.8"/>
<stop offset="1" stop-color="#85C0EB" stop-opacity="0.9"/>
</linearGradient>
<linearGradient id="paint1_linear_4509_5121" x1="34.0397" y1="27.9198" x2="56.3975" y2="39.0987" gradientUnits="userSpaceOnUse">
<stop stop-color="#00358F" stop-opacity="0.9"/>
<stop offset="0.13" stop-color="#00358F" stop-opacity="0.66"/>
<stop offset="0.31" stop-color="#00358F" stop-opacity="0.4"/>
<stop offset="0.47" stop-color="#00358F" stop-opacity="0.21"/>
<stop offset="0.61" stop-color="#00358F" stop-opacity="0.09"/>
<stop offset="0.72" stop-color="#00358F" stop-opacity="0.05"/>
<stop offset="1" stop-color="#00358F" stop-opacity="0.05"/>
</linearGradient>
<linearGradient id="paint2_linear_4509_5121" x1="21.8354" y1="50.2649" x2="36.7566" y2="50.2649" gradientUnits="userSpaceOnUse">
<stop offset="0.01" stop-color="#60B1E7"/>
<stop offset="0.25" stop-color="#71B8E8" stop-opacity="0.9"/>
<stop offset="0.52" stop-color="#7FBDEA" stop-opacity="0.83"/>
<stop offset="0.72" stop-color="#85C0EB" stop-opacity="0.8"/>
<stop offset="1" stop-color="#85C0EB" stop-opacity="0.9"/>
</linearGradient>
<linearGradient id="paint3_linear_4509_5121" x1="23.1692" y1="48.4033" x2="38.5126" y2="56.0734" gradientUnits="userSpaceOnUse">
<stop offset="0.01" stop-color="#00358F" stop-opacity="0.9"/>
<stop offset="0.15" stop-color="#00358F" stop-opacity="0.66"/>
<stop offset="0.32" stop-color="#00358F" stop-opacity="0.4"/>
<stop offset="0.47" stop-color="#00358F" stop-opacity="0.21"/>
<stop offset="0.61" stop-color="#00358F" stop-opacity="0.09"/>
<stop offset="0.72" stop-color="#00358F" stop-opacity="0.05"/>
<stop offset="1" stop-color="#00358F" stop-opacity="0.05"/>
</linearGradient>
<linearGradient id="paint4_linear_4509_5121" x1="26.7534" y1="18.676" x2="0.544554" y2="22.1081" gradientUnits="userSpaceOnUse">
<stop offset="0.09" stop-color="#00358F" stop-opacity="0.9"/>
<stop offset="0.66" stop-color="#00358F" stop-opacity="0.05"/>
<stop offset="0.73" stop-color="#00358F" stop-opacity="0.09"/>
<stop offset="0.81" stop-color="#00358F" stop-opacity="0.19"/>
<stop offset="0.9" stop-color="#00358F" stop-opacity="0.36"/>
<stop offset="1" stop-color="#00358F" stop-opacity="0.6"/>
</linearGradient>
<linearGradient id="paint5_linear_4509_5121" x1="26.7534" y1="18.676" x2="0.544554" y2="22.1081" gradientUnits="userSpaceOnUse">
<stop stop-color="#C5B1DE" stop-opacity="0.1"/>
<stop offset="0.27" stop-color="#C5B1DE" stop-opacity="0.7"/>
<stop offset="0.32" stop-color="#C5B1DE" stop-opacity="0.68"/>
<stop offset="0.39" stop-color="#C5B1DE" stop-opacity="0.61"/>
<stop offset="0.46" stop-color="#C5B1DE" stop-opacity="0.5"/>
<stop offset="0.53" stop-color="#C5B1DE" stop-opacity="0.34"/>
<stop offset="0.6" stop-color="#C5B1DE" stop-opacity="0.15"/>
<stop offset="0.62" stop-color="#C5B1DE" stop-opacity="0.1"/>
</linearGradient>
<linearGradient id="paint6_linear_4509_5121" x1="24.5871" y1="44.4594" x2="-5.70314" y2="33.4372" gradientUnits="userSpaceOnUse">
<stop offset="0.09" stop-color="#00358F" stop-opacity="0.9"/>
<stop offset="0.66" stop-color="#00358F" stop-opacity="0.05"/>
<stop offset="0.73" stop-color="#00358F" stop-opacity="0.09"/>
<stop offset="0.81" stop-color="#00358F" stop-opacity="0.19"/>
<stop offset="0.9" stop-color="#00358F" stop-opacity="0.36"/>
<stop offset="1" stop-color="#00358F" stop-opacity="0.6"/>
</linearGradient>
<linearGradient id="paint7_linear_4509_5121" x1="24.5871" y1="44.4594" x2="-5.70314" y2="33.4372" gradientUnits="userSpaceOnUse">
<stop stop-color="#C5B1DE" stop-opacity="0.2"/>
<stop offset="0.4" stop-color="#C5B1DE" stop-opacity="0.7"/>
<stop offset="0.45" stop-color="#C5B1DE" stop-opacity="0.68"/>
<stop offset="0.51" stop-color="#C5B1DE" stop-opacity="0.61"/>
<stop offset="0.57" stop-color="#C5B1DE" stop-opacity="0.5"/>
<stop offset="0.64" stop-color="#C5B1DE" stop-opacity="0.34"/>
<stop offset="0.71" stop-color="#C5B1DE" stop-opacity="0.15"/>
<stop offset="0.76" stop-color="#C5B1DE" stop-opacity="0"/>
</linearGradient>
<linearGradient id="paint8_linear_4509_5121" x1="31.7463" y1="49.5006" x2="31.7463" y2="13.453" gradientUnits="userSpaceOnUse">
<stop offset="0.02" stop-color="#00358F" stop-opacity="0.6"/>
<stop offset="0.56" stop-color="#00358F" stop-opacity="0"/>
<stop offset="1" stop-color="#00358F" stop-opacity="0.1"/>
</linearGradient>
<linearGradient id="paint9_linear_4509_5121" x1="31.7463" y1="49.5006" x2="31.7463" y2="13.453" gradientUnits="userSpaceOnUse">
<stop offset="0.02" stop-color="#C5B1DE" stop-opacity="0.6"/>
<stop offset="0.56" stop-color="#C5B1DE"/>
<stop offset="1" stop-color="#C5B1DE" stop-opacity="0.3"/>
</linearGradient>
</defs>
</svg>
