<svg width="52" height="52" viewBox="0 0 52 52" fill="none" xmlns="http://www.w3.org/2000/svg">
<path d="M33.5066 21.6616C31.5315 23.2375 29.8114 25.125 28.359 27.2005C28.1015 27.5662 27.8209 27.9602 27.5299 28.3722L27.5247 28.3851C27.6226 28.1095 27.7204 27.834 27.8106 27.5559C28.5985 25.1508 29.0749 22.6401 29.1496 20.114C29.2294 17.5904 28.8972 15.0617 28.1788 12.654C28.8226 15.0823 29.0698 17.6084 28.9101 20.1011C28.7556 22.5963 28.2071 25.0555 27.3573 27.3962C26.5076 29.7395 25.3642 31.9695 24.0175 34.0579C23.3428 35.1034 22.6167 36.1128 21.8416 37.0836C21.4553 37.5677 21.0562 38.0441 20.6442 38.5076C20.4742 38.6982 19.7429 39.2776 19.3489 39.8209C19.0888 40.1814 18.9755 40.5265 19.2717 40.7325C19.9283 41.1934 21.0021 39.4784 21.324 39.0921C21.7308 38.6029 22.1248 38.1033 22.5059 37.596C23.2656 36.5789 23.9737 35.5257 24.6278 34.4364C24.9291 33.9343 25.22 33.4244 25.4982 32.9069L25.4904 32.9249C26.2861 31.4957 26.7651 30.2185 28.7582 27.4632C30.2182 25.4469 31.7581 23.4615 33.6611 21.8418C35.5615 20.217 37.7297 18.8985 40.0575 17.9561C37.7014 18.8239 35.4791 20.0779 33.5092 21.6564L33.5066 21.6616Z" fill="url(#paint0_linear_2870_114568)"/>
<path d="M27.0688 30.9632C31.5906 25.0972 40.7063 20.0604 44.7749 18.6415C52.2992 16.0201 47.7491 24.3633 39.8951 30.5048C38.2703 31.7769 36.6119 36.2962 33.3596 37.5708C33.3112 37.5898 33.2548 37.6098 33.1908 37.6301C33.565 38.176 33.7211 38.7928 33.5476 39.4738C32.1494 44.969 23.5693 51.5302 22.2096 49.6633C20.7212 47.6187 22.0989 37.5296 25.1426 35.0189C25.1549 35.0088 25.1679 34.999 25.1818 34.9896C24.9723 34.0542 26.2297 32.0513 27.0688 30.9632Z" fill="url(#paint1_linear_2870_114568)"/>
<path d="M23.4778 34.0078C26.882 32.2877 25.8108 4.84523 13.314 2.07189C10.0643 1.35087 10.0385 6.17911 9.59306 10.9198C9.22998 14.7824 6.45922 18.5265 8.73815 21.5548C9.46919 22.5263 11.341 24.5389 11.6892 24.9492C7.1906 23.5072 2.62751 24.2586 4.38628 34.7443C5.01459 38.4936 9.32267 46.6874 22.4117 35.7537C23.0889 35.1872 23.4083 34.5975 23.4778 34.0078Z" fill="url(#paint2_linear_2870_114568)"/>
<defs>
<linearGradient id="paint0_linear_2870_114568" x1="9.39691" y1="2" x2="25.8969" y2="50" gradientUnits="userSpaceOnUse">
<stop stop-color="#001042"/>
<stop offset="0.379768" stop-color="#347CC5"/>
<stop offset="0.510977" stop-color="#3889DA"/>
<stop offset="0.634234" stop-color="#347CC5"/>
<stop offset="1" stop-color="#001042"/>
</linearGradient>
<linearGradient id="paint1_linear_2870_114568" x1="9.39691" y1="2" x2="25.8969" y2="50" gradientUnits="userSpaceOnUse">
<stop stop-color="#001042"/>
<stop offset="0.379768" stop-color="#347CC5"/>
<stop offset="0.510977" stop-color="#3889DA"/>
<stop offset="0.634234" stop-color="#347CC5"/>
<stop offset="1" stop-color="#001042"/>
</linearGradient>
<linearGradient id="paint2_linear_2870_114568" x1="9.39691" y1="2" x2="25.8969" y2="50" gradientUnits="userSpaceOnUse">
<stop stop-color="#001042"/>
<stop offset="0.379768" stop-color="#347CC5"/>
<stop offset="0.510977" stop-color="#3889DA"/>
<stop offset="0.634234" stop-color="#347CC5"/>
<stop offset="1" stop-color="#001042"/>
</linearGradient>
</defs>
</svg>
