<svg width="52" height="52" viewBox="0 0 52 52" fill="none" xmlns="http://www.w3.org/2000/svg">
<path d="M25.004 4.35189L3.95652 19.5913C3.7743 19.7232 3.61231 19.881 3.47565 20.0597C3.14931 20.4865 2.9817 21.0135 3.00159 21.5504L3.0101 21.7803C3.02032 22.0563 3.06921 22.3296 3.15534 22.592L10.9601 46.3729C11.1004 46.8005 11.3394 47.1892 11.6577 47.5074C11.9159 47.7657 12.221 47.9722 12.5566 48.1161L12.6044 48.1366C12.9953 48.3041 13.4162 48.3905 13.8415 48.3905H39.0562C39.3496 48.3905 39.6403 48.3345 39.9128 48.2255C40.356 48.0482 40.7333 47.7378 40.9927 47.337L41.0187 47.2967C41.1361 47.1153 41.2291 46.9191 41.2952 46.7133L49.3257 21.7116C49.3738 21.5618 49.3983 21.4054 49.3983 21.248C49.3983 20.9397 49.3043 20.6388 49.1288 20.3853L49.0796 20.3142C48.9648 20.1484 48.8228 20.0031 48.6597 19.8845L27.4166 4.44469C27.1986 4.28621 26.9539 4.1681 26.6942 4.09596L26.5894 4.06687C26.2706 3.97832 25.934 3.97657 25.6143 4.06182C25.3948 4.12035 25.1879 4.21867 25.004 4.35189Z" fill="white"/>
<path d="M24.6743 4.59056L3.95652 19.5913C3.95548 19.592 3.95444 19.5928 3.9534 19.5936L12.1369 21.7152L24.6743 14.6629V4.59056Z" fill="url(#paint0_linear_2870_114581)"/>
<path d="M3.00059 21.4127C2.99955 21.4585 2.99988 21.5044 3.00159 21.5504L3.0101 21.7803C3.02032 22.0563 3.06921 22.3296 3.15534 22.592L10.9601 46.3729C11.0493 46.6446 11.1783 46.9006 11.3422 47.1328L16.3624 40.5806L11.4729 23.6092L3.00059 21.4127Z" fill="url(#paint1_linear_2870_114581)"/>
<path d="M12.9886 48.2724C13.2655 48.3506 13.5525 48.3905 13.8415 48.3905H39.0562C39.2498 48.3905 39.4422 48.3661 39.629 48.3182L34.4051 41.7884H17.9565L12.9886 48.2724Z" fill="url(#paint2_linear_2870_114581)"/>
<path d="M41.1652 47.037C41.2161 46.9324 41.2595 46.8243 41.2952 46.7133L49.3257 21.7116C49.3421 21.6604 49.3558 21.6086 49.3667 21.5561L39.9036 23.6262L35.9696 40.5424L41.1652 47.037Z" fill="url(#paint3_linear_2870_114581)"/>
<path d="M48.4259 19.7146L27.4166 4.44469C27.1986 4.28621 26.9539 4.1681 26.6942 4.09596L26.6743 4.09045V14.6629L39.231 21.726L48.4259 19.7146Z" fill="url(#paint4_linear_2870_114581)"/>
<path d="M13.4559 23.2679L25.6743 16.3951L37.9288 23.2882L34.0916 39.7884H18.2155L13.4559 23.2679Z" fill="url(#paint5_linear_2870_114581)"/>
<defs>
<linearGradient id="paint0_linear_2870_114581" x1="25.9711" y1="3.93018" x2="25.9711" y2="49.4302" gradientUnits="userSpaceOnUse">
<stop stop-color="#001042"/>
<stop offset="0.379768" stop-color="#347CC5"/>
<stop offset="0.510977" stop-color="#3889DA"/>
<stop offset="0.634234" stop-color="#347CC5"/>
<stop offset="1" stop-color="#001042"/>
</linearGradient>
<linearGradient id="paint1_linear_2870_114581" x1="25.9711" y1="3.93018" x2="25.9711" y2="49.4302" gradientUnits="userSpaceOnUse">
<stop stop-color="#001042"/>
<stop offset="0.379768" stop-color="#347CC5"/>
<stop offset="0.510977" stop-color="#3889DA"/>
<stop offset="0.634234" stop-color="#347CC5"/>
<stop offset="1" stop-color="#001042"/>
</linearGradient>
<linearGradient id="paint2_linear_2870_114581" x1="25.9711" y1="3.93018" x2="25.9711" y2="49.4302" gradientUnits="userSpaceOnUse">
<stop stop-color="#001042"/>
<stop offset="0.379768" stop-color="#347CC5"/>
<stop offset="0.510977" stop-color="#3889DA"/>
<stop offset="0.634234" stop-color="#347CC5"/>
<stop offset="1" stop-color="#001042"/>
</linearGradient>
<linearGradient id="paint3_linear_2870_114581" x1="25.9711" y1="3.93018" x2="25.9711" y2="49.4302" gradientUnits="userSpaceOnUse">
<stop stop-color="#001042"/>
<stop offset="0.379768" stop-color="#347CC5"/>
<stop offset="0.510977" stop-color="#3889DA"/>
<stop offset="0.634234" stop-color="#347CC5"/>
<stop offset="1" stop-color="#001042"/>
</linearGradient>
<linearGradient id="paint4_linear_2870_114581" x1="25.9711" y1="3.93018" x2="25.9711" y2="49.4302" gradientUnits="userSpaceOnUse">
<stop stop-color="#001042"/>
<stop offset="0.379768" stop-color="#347CC5"/>
<stop offset="0.510977" stop-color="#3889DA"/>
<stop offset="0.634234" stop-color="#347CC5"/>
<stop offset="1" stop-color="#001042"/>
</linearGradient>
<linearGradient id="paint5_linear_2870_114581" x1="25.9711" y1="3.93018" x2="25.9711" y2="49.4302" gradientUnits="userSpaceOnUse">
<stop stop-color="#001042"/>
<stop offset="0.379768" stop-color="#347CC5"/>
<stop offset="0.510977" stop-color="#3889DA"/>
<stop offset="0.634234" stop-color="#347CC5"/>
<stop offset="1" stop-color="#001042"/>
</linearGradient>
</defs>
</svg>
