<svg width="52" height="52" viewBox="0 0 52 52" fill="none" xmlns="http://www.w3.org/2000/svg">
<path d="M14 2H38.5854V12.3189L36.5099 14.3943H16.6216L14 12.2097V2Z" fill="url(#paint0_linear_2870_114562)"/>
<path fill-rule="evenodd" clip-rule="evenodd" d="M38.5854 14.503V50H14V14.22L16.0624 15.9387H37.1496L38.5854 14.503ZM27.2936 33.2839C27.8938 32.4262 28.6047 31.6461 29.4209 30.9948L29.422 30.9927C30.2361 30.3404 31.1545 29.8221 32.1282 29.4635C31.1662 29.853 30.2701 30.3978 29.4848 31.0693C28.6983 31.7387 28.062 32.5592 27.4586 33.3925C26.8333 34.2568 26.5687 34.7692 26.3336 35.2242C26.259 35.3686 26.1873 35.5073 26.1081 35.6496L26.1113 35.6421C25.9964 35.8561 25.8761 36.0668 25.7516 36.2743C25.4813 36.7244 25.1887 37.1597 24.8747 37.58C24.7172 37.7897 24.5544 37.9961 24.3863 38.1983C24.3648 38.2241 24.3353 38.2641 24.2997 38.3123C24.1146 38.5631 23.7657 39.036 23.5381 38.8762C23.4157 38.7911 23.4625 38.6485 23.57 38.4995C23.6828 38.344 23.8625 38.1813 23.9856 38.0698C24.0401 38.0204 24.0837 37.9809 24.1053 37.9568C24.2756 37.7652 24.4405 37.5683 24.6002 37.3683C24.9205 36.9671 25.2206 36.5499 25.4994 36.1178C26.056 35.2548 26.5285 34.3332 26.8796 33.3648C27.2308 32.3974 27.4575 31.3811 27.5214 30.3499C27.5873 29.3198 27.4852 28.2758 27.2191 27.2723C27.516 28.2673 27.6533 29.3124 27.6203 30.3553C27.5895 31.3992 27.3926 32.4368 27.0669 33.4308C27.0297 33.5456 26.9893 33.6595 26.9489 33.7733L26.951 33.7681C27.0038 33.6932 27.0559 33.6198 27.1067 33.5481L27.1083 33.5458C27.1724 33.4554 27.2345 33.3678 27.2936 33.2839ZM26.7588 34.8393C28.6276 32.415 32.3948 30.3335 34.0762 29.7471C37.1857 28.6638 35.3053 32.1118 32.0596 34.6498C31.8163 34.8403 31.5712 35.2068 31.2937 35.6219C30.8051 36.3527 30.2158 37.234 29.3586 37.57C29.3386 37.5778 29.3153 37.5861 29.2889 37.5945C29.4435 37.8201 29.508 38.075 29.4363 38.3564C28.8585 40.6274 25.3126 43.3389 24.7507 42.5674C24.1356 41.7224 24.705 37.5529 25.9628 36.5154C25.9679 36.5112 25.9733 36.5071 25.979 36.5032C25.8925 36.1167 26.4121 35.2889 26.7588 34.8393ZM21.0752 22.8998C26.2397 24.0459 26.6824 35.3869 25.2755 36.0978C25.2468 36.3415 25.1148 36.5852 24.8349 36.8193C19.4257 41.3379 17.6453 37.9516 17.3856 36.4022C16.6588 32.0688 18.5446 31.7583 20.4037 32.3542C20.3635 32.3068 20.274 32.2076 20.1594 32.0806C19.8641 31.7532 19.4018 31.2406 19.1841 30.9514C18.5587 30.1204 18.8535 29.1589 19.1661 28.1393C19.3243 27.6234 19.487 27.0926 19.5374 26.5563C19.5565 26.3532 19.5737 26.1498 19.5908 25.9485C19.7381 24.2081 19.8714 22.6327 21.0752 22.8998Z" fill="url(#paint1_linear_2870_114562)"/>
<defs>
<linearGradient id="paint0_linear_2870_114562" x1="26.2927" y1="2" x2="26.2927" y2="50" gradientUnits="userSpaceOnUse">
<stop stop-color="#000F42"/>
<stop offset="0.3" stop-color="#337CC4"/>
<stop offset="0.48" stop-color="#3889D9"/>
<stop offset="0.67" stop-color="#337CC4"/>
<stop offset="1" stop-color="#000F42"/>
</linearGradient>
<linearGradient id="paint1_linear_2870_114562" x1="26.2927" y1="2" x2="26.2927" y2="50" gradientUnits="userSpaceOnUse">
<stop stop-color="#000F42"/>
<stop offset="0.3" stop-color="#337CC4"/>
<stop offset="0.48" stop-color="#3889D9"/>
<stop offset="0.67" stop-color="#337CC4"/>
<stop offset="1" stop-color="#000F42"/>
</linearGradient>
</defs>
</svg>
